# MagicaVoxel @ Ephtracy

# group
o 

# material
mtllib UI Button.mtl
usemtl palette

# normals
vn -1 0 0
vn 1 0 0
vn 0 0 1
vn 0 0 -1
vn 0 -1 0
vn 0 1 0

# texcoords
vt 0.947266 0.5
vt 0.982422 0.5

# verts
v 0 2 -0.2
v 0 2 -0.6
v 0 2.1 -0.2
v 0 2.1 -0.6
v 0.1 2 -0.1
v 0.1 2 -0.2
v 0.1 2 -0.6
v 0.1 2 -0.7
v 0.1 2.1 -0.1
v 0.1 2.1 -0.2
v 0.1 2.1 -0.3
v 0.1 2.1 -0.5
v 0.1 2.1 -0.6
v 0.1 2.1 -0.7
v 0.1 2.2 -0.3
v 0.1 2.2 -0.5
v 0.2 2.1 -0.2
v 0.2 2.1 -0.3
v 0.2 2.1 -0.5
v 0.2 2.1 -0.6
v 0.2 2.2 -0.2
v 0.2 2.2 -0.3
v 0.2 2.2 -0.5
v 0.2 2.2 -0.6
v 1 2.1 -0.2
v 1 2.1 -0.3
v 1 2.1 -0.5
v 1 2.1 -0.6
v 1 2.2 -0.2
v 1 2.2 -0.3
v 1 2.2 -0.5
v 1 2.2 -0.6
v 1.1 2 -0.1
v 1.1 2 -0.2
v 1.1 2 -0.6
v 1.1 2 -0.7
v 1.1 2.1 -0.1
v 1.1 2.1 -0.2
v 1.1 2.1 -0.3
v 1.1 2.1 -0.5
v 1.1 2.1 -0.6
v 1.1 2.1 -0.7
v 1.1 2.2 -0.3
v 1.1 2.2 -0.5
v 1.2 2 -0.2
v 1.2 2 -0.6
v 1.2 2.1 -0.2
v 1.2 2.1 -0.6
v 0.1 2 -0.1
v 0.1 2.1 -0.1
v 1.1 2 -0.1
v 1.1 2.1 -0.1
v 0 2 -0.2
v 0 2.1 -0.2
v 0.1 2 -0.2
v 0.1 2.1 -0.2
v 0.2 2.1 -0.2
v 0.2 2.2 -0.2
v 1 2.1 -0.2
v 1 2.2 -0.2
v 1.1 2 -0.2
v 1.1 2.1 -0.2
v 1.2 2 -0.2
v 1.2 2.1 -0.2
v 0.1 2.1 -0.3
v 0.1 2.2 -0.3
v 0.2 2.1 -0.3
v 0.2 2.2 -0.3
v 1 2.1 -0.3
v 1 2.2 -0.3
v 1.1 2.1 -0.3
v 1.1 2.2 -0.3
v 0.1 2.1 -0.5
v 0.1 2.2 -0.5
v 0.2 2.1 -0.5
v 0.2 2.2 -0.5
v 1 2.1 -0.5
v 1 2.2 -0.5
v 1.1 2.1 -0.5
v 1.1 2.2 -0.5
v 0 2 -0.6
v 0 2.1 -0.6
v 0.1 2 -0.6
v 0.1 2.1 -0.6
v 0.2 2.1 -0.6
v 0.2 2.2 -0.6
v 1 2.1 -0.6
v 1 2.2 -0.6
v 1.1 2 -0.6
v 1.1 2.1 -0.6
v 1.2 2 -0.6
v 1.2 2.1 -0.6
v 0.1 2 -0.7
v 0.1 2.1 -0.7
v 1.1 2 -0.7
v 1.1 2.1 -0.7
v 0.1 2 -0.1
v 1.1 2 -0.1
v 0 2 -0.2
v 0.1 2 -0.2
v 1.1 2 -0.2
v 1.2 2 -0.2
v 0 2 -0.6
v 0.1 2 -0.6
v 1.1 2 -0.6
v 1.2 2 -0.6
v 0.1 2 -0.7
v 1.1 2 -0.7
v 0.1 2.1 -0.1
v 1.1 2.1 -0.1
v 0 2.1 -0.2
v 0.1 2.1 -0.2
v 0.2 2.1 -0.2
v 1 2.1 -0.2
v 1.1 2.1 -0.2
v 1.2 2.1 -0.2
v 0.1 2.1 -0.3
v 0.2 2.1 -0.3
v 1 2.1 -0.3
v 1.1 2.1 -0.3
v 0.1 2.1 -0.5
v 0.2 2.1 -0.5
v 1 2.1 -0.5
v 1.1 2.1 -0.5
v 0 2.1 -0.6
v 0.1 2.1 -0.6
v 0.2 2.1 -0.6
v 1 2.1 -0.6
v 1.1 2.1 -0.6
v 1.2 2.1 -0.6
v 0.1 2.1 -0.7
v 1.1 2.1 -0.7
v 0.2 2.2 -0.2
v 1 2.2 -0.2
v 0.1 2.2 -0.3
v 0.2 2.2 -0.3
v 1 2.2 -0.3
v 1.1 2.2 -0.3
v 0.1 2.2 -0.5
v 0.2 2.2 -0.5
v 1 2.2 -0.5
v 1.1 2.2 -0.5
v 0.2 2.2 -0.6
v 1 2.2 -0.6

# faces
f 3/2/1 2/2/1 1/2/1
f 4/2/1 2/2/1 3/2/1
f 9/2/1 6/2/1 5/2/1
f 10/2/1 6/2/1 9/2/1
f 13/2/1 8/2/1 7/2/1
f 14/2/1 8/2/1 13/2/1
f 15/1/1 12/1/1 11/1/1
f 16/1/1 12/1/1 15/1/1
f 21/1/1 18/1/1 17/1/1
f 22/1/1 18/1/1 21/1/1
f 23/1/1 20/1/1 19/1/1
f 24/1/1 20/1/1 23/1/1
f 25/1/2 26/1/2 29/1/2
f 29/1/2 26/1/2 30/1/2
f 27/1/2 28/1/2 31/1/2
f 31/1/2 28/1/2 32/1/2
f 33/2/2 34/2/2 37/2/2
f 37/2/2 34/2/2 38/2/2
f 35/2/2 36/2/2 41/2/2
f 41/2/2 36/2/2 42/2/2
f 39/1/2 40/1/2 43/1/2
f 43/1/2 40/1/2 44/1/2
f 45/2/2 46/2/2 47/2/2
f 47/2/2 46/2/2 48/2/2
f 51/2/3 50/2/3 49/2/3
f 52/2/3 50/2/3 51/2/3
f 55/2/3 54/2/3 53/2/3
f 56/2/3 54/2/3 55/2/3
f 59/1/3 58/1/3 57/1/3
f 60/1/3 58/1/3 59/1/3
f 63/2/3 62/2/3 61/2/3
f 64/2/3 62/2/3 63/2/3
f 67/1/3 66/1/3 65/1/3
f 68/1/3 66/1/3 67/1/3
f 71/1/3 70/1/3 69/1/3
f 72/1/3 70/1/3 71/1/3
f 73/1/4 74/1/4 75/1/4
f 75/1/4 74/1/4 76/1/4
f 77/1/4 78/1/4 79/1/4
f 79/1/4 78/1/4 80/1/4
f 81/2/4 82/2/4 83/2/4
f 83/2/4 82/2/4 84/2/4
f 85/1/4 86/1/4 87/1/4
f 87/1/4 86/1/4 88/1/4
f 89/2/4 90/2/4 91/2/4
f 91/2/4 90/2/4 92/2/4
f 93/2/4 94/2/4 95/2/4
f 95/2/4 94/2/4 96/2/4
f 100/2/5 98/2/5 97/2/5
f 101/2/5 98/2/5 100/2/5
f 103/2/5 100/2/5 99/2/5
f 103/2/5 102/2/5 101/2/5
f 103/2/5 101/2/5 100/2/5
f 104/2/5 102/2/5 103/2/5
f 105/2/5 102/2/5 104/2/5
f 106/2/5 102/2/5 105/2/5
f 107/2/5 105/2/5 104/2/5
f 108/2/5 105/2/5 107/2/5
f 109/2/6 110/2/6 112/2/6
f 112/2/6 110/2/6 113/2/6
f 113/2/6 110/2/6 114/2/6
f 114/2/6 110/2/6 115/2/6
f 111/2/6 112/2/6 117/2/6
f 112/2/6 113/2/6 117/2/6
f 117/2/6 113/2/6 118/2/6
f 115/2/6 116/2/6 119/2/6
f 114/2/6 115/2/6 119/2/6
f 119/2/6 116/2/6 120/2/6
f 111/2/6 117/2/6 121/2/6
f 120/2/6 116/2/6 124/2/6
f 121/2/6 122/2/6 125/2/6
f 111/2/6 121/2/6 125/2/6
f 125/2/6 122/2/6 126/2/6
f 126/2/6 122/2/6 127/2/6
f 123/2/6 124/2/6 128/2/6
f 124/2/6 116/2/6 129/2/6
f 128/2/6 124/2/6 129/2/6
f 129/2/6 116/2/6 130/2/6
f 126/2/6 127/2/6 131/2/6
f 127/2/6 128/2/6 131/2/6
f 128/2/6 129/2/6 131/2/6
f 131/2/6 129/2/6 132/2/6
f 133/1/6 134/1/6 136/1/6
f 136/1/6 134/1/6 137/1/6
f 135/1/6 136/1/6 139/1/6
f 137/1/6 138/1/6 139/1/6
f 136/1/6 137/1/6 139/1/6
f 139/1/6 138/1/6 140/1/6
f 140/1/6 138/1/6 141/1/6
f 141/1/6 138/1/6 142/1/6
f 140/1/6 141/1/6 143/1/6
f 143/1/6 141/1/6 144/1/6
